<?xml version="1.0" standalone="no"?>
<!DOCTYPE svg PUBLIC "-//W3C//DTD SVG 20010904//EN"
 "http://www.w3.org/TR/2001/REC-SVG-20010904/DTD/svg10.dtd">
<svg version="1.0" xmlns="http://www.w3.org/2000/svg"
 width="512.000000pt" height="512.000000pt" viewBox="0 0 512.000000 512.000000"
 preserveAspectRatio="xMidYMid meet">
<metadata>
Created by potrace 1.14, written by Peter Selinger 2001-2017
</metadata>
<g transform="translate(0.000000,512.000000) scale(0.100000,-0.100000)"
fill="#000000" stroke="none">
<path d="M1697 4354 c-1 -1 -18 -4 -37 -7 -59 -7 -131 -45 -175 -90 -24 -25
-119 -179 -233 -377 -107 -184 -198 -342 -203 -350 -33 -54 -457 -796 -482
-842 -23 -45 -30 -72 -32 -125 -3 -84 15 -139 84 -255 28 -48 51 -91 51 -97 0
-6 4 -11 9 -11 5 0 14 -12 20 -27 6 -16 24 -48 39 -73 16 -25 42 -70 59 -100
17 -30 53 -95 82 -143 28 -49 51 -93 51 -98 0 -5 5 -9 10 -9 6 0 10 -6 10 -12
0 -7 7 -22 15 -32 13 -17 32 -19 217 -22 112 -2 221 -3 243 -3 22 1 45 1 50 0
11 0 358 -7 900 -16 182 -3 387 -6 458 -8 70 -1 127 0 127 3 0 3 11 6 24 6 37
3 112 44 152 83 29 29 72 94 139 209 6 9 27 45 48 80 20 35 37 67 37 72 0 4 4
10 8 12 6 2 217 346 292 477 22 38 187 316 225 381 21 34 40 55 52 55 19 0 53
-23 53 -35 0 -7 124 -225 140 -245 4 -5 18 -30 32 -55 14 -25 39 -70 56 -100
l31 -55 -164 -284 c-91 -157 -165 -286 -165 -287 0 -1 -27 -48 -60 -104 -33
-56 -60 -106 -60 -111 0 -5 -4 -9 -10 -9 -5 0 -10 -4 -10 -9 0 -8 -123 -226
-199 -351 -11 -19 -24 -42 -28 -50 -4 -8 -33 -59 -65 -113 -32 -53 -58 -102
-58 -107 0 -5 -8 -14 -18 -19 -12 -6 -329 -10 -850 -11 -784 0 -832 1 -842 17
-6 10 -68 117 -138 237 l-127 220 -202 2 c-112 1 -203 0 -203 -2 0 -6 41 -78
61 -106 11 -14 19 -29 19 -32 0 -6 147 -263 180 -316 5 -8 37 -63 71 -123 33
-59 80 -126 102 -150 48 -49 123 -87 181 -92 23 -2 41 -5 41 -5 0 -1 19 -3 42
-4 23 -1 40 1 38 4 -2 4 2 7 10 7 8 0 15 -3 15 -7 0 -8 105 -5 118 4 6 3 13 3
16 -2 6 -10 87 -9 103 1 7 4 15 3 18 -3 5 -8 11 -8 19 -1 7 6 16 8 20 4 11
-11 80 -10 89 2 5 7 9 7 15 0 8 -12 22 -13 38 -3 6 4 14 4 18 1 9 -9 86 -11
81 -3 -2 4 2 7 10 7 8 0 15 -4 15 -8 0 -8 20 -7 36 4 6 3 14 3 18 0 9 -9 86
-11 81 -3 -2 4 2 7 10 7 8 0 15 -3 15 -6 0 -4 22 -6 49 -6 27 0 47 4 44 9 -4
5 0 6 7 1 17 -11 80 -14 74 -3 -3 4 5 4 18 0 27 -9 70 -8 86 2 6 3 13 3 16 -2
6 -9 87 -9 102 1 6 3 14 4 18 0 10 -10 245 -9 239 1 -4 5 0 6 7 1 19 -12 80
-14 73 -2 -4 6 -1 7 7 2 17 -11 80 -14 74 -3 -3 4 5 5 18 0 20 -6 91 -8 111
-2 4 1 10 3 15 4 4 1 13 5 20 9 6 5 12 6 12 3 0 -3 18 3 40 13 57 25 130 95
157 151 7 14 17 32 22 40 16 25 112 192 144 250 17 30 41 72 54 92 13 21 23
42 23 48 0 5 5 10 10 10 6 0 10 4 10 9 0 9 159 291 170 301 3 3 10 14 16 25
28 52 157 278 173 305 70 113 252 442 257 464 15 61 10 131 -13 195 -13 36
-30 72 -38 81 -8 9 -15 19 -15 22 0 3 -36 67 -80 143 -44 76 -80 141 -80 146
0 5 -4 9 -8 9 -4 0 -15 15 -23 33 -26 55 -54 102 -61 105 -5 2 -8 8 -8 13 0 5
-17 38 -38 72 -21 35 -41 70 -44 79 -8 20 -50 23 -298 23 l-185 0 -105 -185
c-58 -102 -126 -219 -150 -260 -25 -41 -51 -86 -58 -100 -7 -14 -18 -34 -25
-45 -7 -11 -34 -59 -61 -105 -27 -47 -68 -114 -91 -150 -23 -36 -44 -69 -46
-75 -5 -12 -66 -115 -91 -153 -10 -15 -21 -34 -25 -42 -34 -66 -158 -260 -167
-261 -6 0 -58 1 -116 1 -58 1 -213 4 -345 5 -132 2 -409 7 -615 10 -206 4
-430 8 -497 9 -67 1 -127 6 -132 11 -5 6 -43 69 -85 141 -41 72 -84 146 -95
165 -12 19 -24 41 -28 49 -4 8 -24 44 -45 79 l-39 63 27 51 c37 72 48 91 55
97 6 5 81 138 88 155 2 6 7 12 10 15 6 5 49 81 66 117 5 13 13 23 18 23 4 0 7
4 7 9 0 5 23 49 51 98 28 48 60 103 70 120 10 18 69 119 130 225 61 106 122
211 134 233 13 22 53 90 89 150 36 61 71 122 77 138 7 17 19 27 32 28 89 5
163 3 169 -5 4 -6 12 -6 20 0 10 7 441 10 848 4 8 0 78 1 155 3 77 2 148 -1
158 -5 9 -5 17 -5 17 -1 0 4 65 8 145 8 132 -1 146 -3 160 -20 19 -25 245
-414 245 -423 0 -4 9 -18 19 -31 19 -24 21 -25 209 -27 105 -1 196 -5 202 -9
21 -13 1 32 -64 145 -35 59 -66 113 -69 121 -4 8 -17 30 -28 49 -82 137 -129
220 -129 229 0 6 -4 11 -10 11 -5 0 -10 4 -10 10 0 18 -90 158 -127 197 -39
40 -108 79 -160 90 -23 5 -1791 11 -1796 7z"/>
<path d="M2212 3408 c-105 -15 -185 -73 -243 -174 -18 -33 -36 -60 -41 -62 -4
-2 -8 -8 -8 -13 0 -5 -18 -38 -40 -73 -22 -35 -40 -68 -40 -74 0 -6 -4 -12 -8
-14 -4 -1 -34 -48 -66 -103 -33 -55 -64 -106 -70 -114 -6 -7 -24 -38 -41 -67
-16 -30 -79 -136 -140 -236 -60 -100 -114 -190 -120 -200 -5 -9 -26 -44 -46
-77 l-37 -59 29 -4 c17 -3 32 -1 35 4 3 5 10 6 15 2 9 -5 367 -10 1213 -17
l229 -2 68 110 c37 61 68 116 69 123 0 6 4 12 8 12 5 0 16 15 25 33 9 17 21
39 26 47 36 57 121 201 121 204 0 2 32 60 71 128 39 67 75 130 79 138 7 13
-14 15 -158 15 -92 0 -191 3 -220 6 -29 3 -55 1 -58 -3 -3 -5 -10 -6 -15 -2
-5 3 -127 7 -269 8 l-260 2 -99 -165 c-55 -92 -100 -170 -101 -175 0 -6 119
-11 286 -12 157 -1 288 -5 290 -7 5 -5 -56 -107 -65 -108 -28 -4 -181 -3 -181
2 0 3 -20 3 -44 -1 -24 -3 -53 -3 -65 1 -12 5 -21 4 -21 -1 0 -5 -7 -7 -15 -4
-8 4 -95 7 -192 8 -187 2 -194 4 -159 46 7 8 26 38 42 65 48 83 55 96 168 284
l108 181 417 -6 c229 -3 472 -7 541 -8 69 -2 130 -1 137 2 7 2 31 38 55 80 23
43 47 85 53 94 5 9 17 29 26 45 9 15 28 49 43 76 l27 47 -23 1 c-30 1 -370 7
-813 14 -192 3 -377 7 -411 8 -34 1 -84 -1 -112 -5z"/>
</g>
</svg>
