<?xml version="1.0" standalone="no"?>
<!DOCTYPE svg PUBLIC "-//W3C//DTD SVG 20010904//EN"
 "http://www.w3.org/TR/2001/REC-SVG-20010904/DTD/svg10.dtd">
<svg version="1.0" xmlns="http://www.w3.org/2000/svg"
 width="525.000000pt" height="69.000000pt" viewBox="0 0 525.000000 69.000000"
 preserveAspectRatio="xMidYMid meet">

<g transform="translate(0.000000,69.000000) scale(0.100000,-0.100000)"
fill="#444444" stroke="none">
<path d="M12 682 c-17 -5 -15 -22 3 -22 8 0 15 -6 15 -12 1 -7 7 -2 15 12 l15
25 -6 -26 c-5 -22 -1 -29 24 -42 23 -11 33 -12 42 -3 8 8 9 6 4 -7 -4 -12 0
-23 12 -32 22 -17 84 -20 84 -4 0 5 -4 7 -10 4 -6 -4 -7 1 -3 11 6 16 7 15 20
-2 7 -10 13 -27 14 -38 1 -18 2 -18 9 4 7 21 8 21 9 5 0 -11 -4 -27 -9 -35 -5
-8 -10 -10 -10 -5 0 6 -9 -7 -18 -27 -16 -32 -113 -147 -194 -229 -22 -22 -28
-37 -28 -71 0 -30 3 -39 9 -28 6 8 7 18 5 22 -3 4 2 8 11 8 9 0 13 4 10 10 -3
5 -1 10 6 10 19 0 61 51 55 67 -4 10 -2 13 7 10 8 -3 39 21 71 53 36 36 64 56
73 53 8 -3 12 -12 9 -20 -4 -9 -1 -11 5 -7 7 4 10 1 7 -7 -3 -8 -1 -22 4 -33
8 -15 12 -16 19 -5 6 10 9 11 9 2 0 -7 7 -13 16 -13 8 0 13 -4 9 -10 -3 -5
-11 -8 -18 -6 -7 1 -9 1 -5 -1 4 -2 4 -11 1 -19 -4 -10 2 -13 26 -10 39 4 53
16 21 16 -19 0 -21 3 -12 12 13 13 16 29 5 27 -20 -3 -26 2 -13 11 12 8 10 10
-9 10 -20 0 -21 2 -11 15 8 10 9 15 2 15 -6 0 -9 6 -6 13 3 8 -2 20 -11 27 -8
7 -15 22 -15 33 0 20 0 20 15 1 8 -10 15 -14 15 -9 0 6 9 11 21 12 34 3 79 27
79 43 0 13 1 13 10 0 7 -11 12 -12 20 -4 9 9 9 14 1 18 -6 4 -11 12 -11 18 0
5 9 0 21 -13 18 -22 20 -22 15 -4 -5 16 -1 21 16 22 16 2 19 0 9 -6 -8 -5 -10
-14 -5 -22 6 -10 11 -5 20 16 11 28 12 28 19 6 6 -21 8 -22 26 -5 11 9 22 14
25 11 4 -3 13 0 21 8 17 17 33 19 33 5 0 -5 5 -10 10 -10 6 0 10 7 10 15 0 8
5 15 10 15 6 0 10 -4 10 -10 0 -5 7 -7 15 -4 8 4 15 13 15 21 0 12 3 13 14 4
19 -16 26 -2 14 29 -6 14 -12 20 -15 13 -3 -8 -13 -9 -33 -3 -23 7 -28 5 -23
-6 3 -8 10 -14 16 -14 6 0 7 -3 4 -6 -4 -4 -13 -1 -22 6 -12 10 -15 10 -15 -1
0 -8 -9 -20 -20 -27 -17 -10 -20 -10 -20 4 0 8 5 12 10 9 6 -3 10 -1 10 4 0 6
-11 10 -25 9 -26 -2 -32 -12 -15 -23 6 -3 10 -12 10 -18 0 -7 -9 -1 -19 12
-12 16 -21 20 -25 12 -4 -6 -5 -15 -2 -19 2 -4 0 -14 -6 -22 -8 -12 -9 -12 -4
3 3 9 1 17 -5 17 -6 0 -7 5 -4 10 9 15 -6 12 -26 -6 -9 -8 -27 -15 -40 -16
-13 0 -33 -4 -44 -8 -11 -4 -35 -13 -52 -20 -18 -7 -33 -20 -34 -29 0 -12 -2
-11 -9 4 -6 14 -9 15 -10 5 0 -12 -3 -11 -11 3 -6 10 -8 25 -4 34 3 9 8 51 10
92 3 62 2 71 -7 51 -11 -25 -11 -25 -15 -2 -6 33 -33 28 -33 -7 0 -16 -7 -34
-15 -41 -8 -7 -15 -8 -15 -4 0 5 -10 15 -22 23 -23 14 -23 13 -5 -6 17 -20 17
-20 -10 -17 -15 2 -20 1 -10 -2 21 -7 23 -34 2 -34 -8 0 -15 7 -15 16 0 9 -5
12 -12 8 -7 -4 -6 1 3 11 16 16 16 18 -2 36 -20 20 -34 26 -24 10 3 -5 0 -13
-6 -17 -8 -5 -10 1 -7 17 4 22 1 24 -42 25 -25 0 -51 -1 -58 -4z m88 -25 c0
-19 -10 -27 -25 -20 -17 6 -8 33 11 33 8 0 14 -6 14 -13z m187 -69 c-3 -8 -6
-5 -6 6 -1 11 2 17 5 13 3 -3 4 -12 1 -19z m-27 -158 c0 -11 -4 -20 -9 -20 -5
0 -7 9 -4 20 3 11 7 20 9 20 2 0 4 -9 4 -20z m-40 -8 c0 -12 -23 -32 -37 -32
-9 0 -8 6 5 19 18 21 32 26 32 13z m70 -32 c0 -5 -4 -10 -10 -10 -5 0 -10 5
-10 10 0 6 5 10 10 10 6 0 10 -4 10 -10z m10 -24 c0 -2 -7 -9 -15 -16 -13 -11
-14 -10 -9 4 5 14 24 23 24 12z m-150 -20 c0 -3 -4 -8 -10 -11 -5 -3 -10 -1
-10 4 0 6 5 11 10 11 6 0 10 -2 10 -4z m-30 -36 c0 -5 -2 -10 -4 -10 -3 0 -8
5 -11 10 -3 6 -1 10 4 10 6 0 11 -4 11 -10z"/>
<path d="M423 629 c19 -53 49 -90 63 -76 2 2 -6 34 -18 71 -18 55 -26 66 -45
66 l-22 0 22 -61z"/>
<path d="M692 655 c10 -29 14 -33 30 -24 12 6 17 17 14 26 -3 8 -6 19 -6 24 0
5 -11 9 -24 9 -23 0 -24 -2 -14 -35z"/>
<path d="M873 677 c-3 -4 -12 -6 -20 -3 -12 5 -14 -1 -11 -28 2 -19 0 -32 -4
-30 -4 3 -8 12 -8 20 0 8 -9 14 -20 14 -11 0 -20 -5 -20 -11 0 -8 -4 -8 -13
-1 -8 7 -17 6 -30 -3 -14 -10 -16 -18 -7 -39 11 -31 40 -34 47 -5 4 16 8 17
14 7 7 -10 9 -8 9 7 1 18 2 18 13 4 15 -20 77 -6 77 17 0 12 4 13 20 4 24 -13
25 -7 4 25 -19 28 -8 34 12 8 13 -17 14 -17 8 2 -4 15 -3 16 4 6 5 -7 15 -10
21 -7 6 4 11 2 11 -3 0 -6 -7 -11 -15 -11 -20 0 -19 -15 6 -95 14 -47 26 -69
40 -72 10 -3 19 -10 19 -15 0 -5 5 -6 12 -2 8 5 2 12 -17 20 -25 11 -20 20 8
15 4 -1 3 7 -3 16 -5 10 -19 42 -30 71 -15 41 -17 52 -6 52 7 0 19 7 26 15 7
8 16 12 21 10 4 -3 23 1 41 8 l33 14 -52 0 c-37 -1 -53 -5 -53 -14 0 -16 -17
-17 -22 -1 -5 14 -106 19 -115 5z m17 -27 c0 -19 -5 -29 -12 -27 -23 4 -38 37
-17 37 5 0 7 -6 3 -12 -4 -8 -3 -10 2 -5 5 5 10 13 10 18 5 32 14 24 14 -11z
m-112 -47 c-5 -23 -23 -20 -26 4 -3 18 0 21 13 17 9 -4 15 -13 13 -21z"/>
<path d="M1200 680 c0 -6 7 -27 15 -46 8 -20 12 -40 9 -45 -3 -5 0 -9 7 -9 8
0 8 -4 -1 -15 -9 -10 -9 -15 -1 -15 6 0 12 5 12 10 3 20 4 25 12 38 5 6 16 12
25 11 14 0 14 -2 -2 -8 -16 -6 -17 -9 -6 -16 9 -5 15 -4 18 4 2 7 19 32 38 57
l34 44 -26 0 c-17 0 -30 -9 -42 -30 -21 -38 -30 -38 -43 0 -10 29 -49 44 -49
20z"/>
<path d="M1626 683 c-14 -14 -5 -25 11 -12 15 13 15 12 4 -10 -11 -19 -11 -25
0 -32 8 -5 20 -7 27 -4 7 3 12 -5 12 -21 0 -19 4 -25 15 -20 8 3 15 1 15 -4 0
-6 -4 -10 -10 -10 -5 0 -8 -12 -6 -27 2 -16 1 -21 -1 -13 -3 8 -10 20 -15 25
-8 7 -9 4 -4 -9 5 -16 4 -17 -9 -6 -13 11 -15 8 -15 -18 0 -17 5 -34 10 -37 6
-4 10 -12 9 -18 -1 -7 -1 -21 0 -32 1 -18 3 -18 14 -4 7 9 20 15 30 13 9 -1
17 2 17 8 0 6 -12 8 -30 5 -24 -5 -28 -3 -23 9 4 10 14 14 29 11 13 -2 21 0
18 5 -4 6 -17 8 -30 5 -21 -4 -42 18 -29 31 3 3 5 0 5 -6 0 -7 9 -12 20 -12
15 0 20 7 20 29 0 39 9 61 26 61 17 0 19 26 2 36 -6 4 -17 -1 -25 -12 -13 -18
-14 -18 -20 4 -3 13 -11 21 -18 18 -8 -3 -16 2 -19 10 -3 8 1 17 9 20 8 4 15
9 15 13 0 9 -45 12 -54 4z"/>
<path d="M1852 680 c2 -10 -5 -15 -20 -14 -12 0 -21 -4 -19 -10 2 -6 8 -11 13
-11 5 0 14 -4 20 -8 15 -9 27 34 13 48 -7 7 -9 5 -7 -5z"/>
<path d="M1893 683 c4 -3 0 -15 -10 -25 -9 -11 -11 -18 -5 -18 7 0 12 4 12 9
0 5 9 7 20 4 11 -3 20 0 20 6 0 6 6 11 14 11 8 0 17 4 20 9 3 4 -4 8 -17 7
-12 0 -25 -8 -29 -16 -5 -12 -7 -12 -7 3 -1 9 -6 17 -13 17 -6 0 -8 -3 -5 -7z"/>
<path d="M2033 636 c0 -42 3 -53 13 -49 9 3 14 -2 14 -12 0 -11 -5 -15 -15
-11 -11 4 -15 -2 -15 -23 0 -20 6 -30 20 -34 10 -3 21 0 24 7 2 6 5 3 5 -6 1
-9 4 -23 7 -32 4 -11 1 -16 -11 -16 -9 0 -14 3 -12 8 3 4 -1 13 -9 20 -20 18
-19 -11 1 -31 12 -12 20 -13 39 -4 14 7 20 15 14 18 -6 4 -7 12 -3 19 5 7 11
8 17 2 6 -6 29 -2 61 10 44 16 53 24 55 46 3 36 18 48 17 14 0 -21 5 -28 23
-30 12 -2 22 1 22 7 0 6 8 7 18 4 15 -6 15 -5 4 10 -8 9 -12 22 -9 29 4 9 6 8
6 -3 1 -9 7 -22 15 -28 20 -17 39 10 28 39 -8 20 -9 21 -15 6 -4 -10 -4 -23
-1 -29 3 -7 -3 -2 -13 11 -18 21 -19 22 -34 4 -8 -10 -14 -23 -11 -30 5 -15
-14 -16 -23 -1 -4 5 0 18 9 28 15 17 15 18 -1 17 -10 -1 -29 -9 -43 -18 -14
-9 -46 -22 -73 -29 -33 -8 -47 -16 -45 -27 2 -8 -3 -17 -9 -19 -7 -3 -13 2
-13 11 0 9 -5 16 -11 16 -7 0 -9 11 -6 27 3 19 -1 31 -17 44 -17 15 -18 18 -4
19 9 0 18 -6 21 -12 2 -7 4 0 4 15 0 15 -2 26 -4 23 -9 -9 -31 18 -26 31 3 7
1 13 -5 13 -5 0 -9 -24 -9 -54z m127 -126 c-8 -5 -19 -10 -25 -10 -5 0 -3 5 5
10 8 5 20 10 25 10 6 0 3 -5 -5 -10z"/>
<path d="M2075 680 c-3 -5 -1 -10 4 -10 6 0 11 5 11 10 0 6 -2 10 -4 10 -3 0
-8 -4 -11 -10z"/>
<path d="M2250 675 c0 -8 5 -17 10 -20 6 -4 8 -11 5 -16 -3 -5 2 -6 12 -3 16
5 15 3 -2 -11 -19 -16 -19 -16 10 -9 17 4 32 8 34 10 4 4 -26 35 -34 34 -19
-1 -25 1 -25 9 0 5 9 7 20 4 11 -3 20 -1 20 3 0 5 -11 10 -25 10 -15 1 -25 -4
-25 -11z"/>
<path d="M2550 678 c0 -4 -12 -8 -27 -8 -25 0 -26 -1 -8 -13 14 -11 15 -16 5
-22 -7 -4 -15 -3 -19 2 -3 5 -14 12 -23 16 -13 5 -16 0 -13 -23 3 -24 1 -28
-16 -25 -22 4 -26 -10 -4 -19 8 -3 31 4 50 16 20 11 38 19 40 16 2 -2 10 -21
17 -43 7 -21 19 -40 26 -41 7 -1 8 0 2 3 -8 3 -7 9 1 19 8 10 8 22 0 45 -6 18
-9 34 -7 37 3 2 24 5 48 6 47 2 118 25 118 38 0 5 -9 4 -19 -2 -25 -13 -44
-13 -36 0 3 6 1 10 -4 10 -6 0 -11 -7 -11 -15 0 -20 -29 -19 -37 2 -6 15 -7
15 -14 -3 -6 -14 -8 -15 -8 -3 -1 10 -11 15 -31 15 -16 0 -30 -3 -30 -8z"/>
<path d="M2820 682 c0 -5 9 -35 20 -67 25 -72 25 -72 -2 -80 -50 -14 -77 -28
-72 -36 3 -5 2 -14 -2 -20 -4 -8 -9 -7 -15 2 -6 10 -9 8 -9 -8 0 -25 15 -30
27 -10 4 8 31 20 58 27 52 14 72 30 53 41 -6 4 -2 10 11 14 24 7 28 40 7 68
-11 14 -15 15 -19 5 -3 -7 -6 -1 -6 14 -1 40 -11 58 -32 58 -10 0 -19 -4 -19
-8z m64 -98 c9 -22 8 -26 -6 -22 -13 5 -20 38 -8 38 4 0 11 -7 14 -16z"/>
<path d="M3100 686 c0 -3 4 -16 10 -30 9 -24 7 -25 -84 -56 -94 -31 -128 -53
-118 -79 2 -8 0 -11 -6 -7 -16 9 -25 -31 -12 -51 10 -16 11 -15 7 4 -3 13 0
26 6 30 7 3 9 3 5 -2 -4 -4 -1 -22 7 -40 7 -19 12 -35 10 -37 -2 -2 5 -4 15
-5 11 -1 20 2 20 7 0 21 -14 40 -29 40 -12 0 -13 2 -3 8 9 6 10 16 4 32 -8 22
-4 25 86 56 53 19 99 39 104 46 6 10 8 9 8 -3 0 -9 9 -45 20 -80 24 -73 28
-67 -84 -104 -58 -19 -89 -25 -118 -20 -23 4 -38 3 -38 -4 0 -15 17 -23 23
-11 4 7 5 6 3 -1 -2 -11 -74 -38 -426 -158 -191 -65 -195 -67 -196 -94 -1 -30
-17 -47 -44 -47 -11 0 -16 -11 -17 -39 -2 -35 0 -38 23 -35 32 3 42 13 25 23
-11 7 -11 10 0 14 10 4 10 6 2 6 -7 1 -13 7 -13 14 0 8 12 14 33 14 30 0 293
86 364 118 17 8 37 15 44 15 12 0 73 20 124 40 70 28 106 39 101 31 -3 -5 1
-12 10 -15 28 -11 41 -6 40 15 -1 18 14 27 91 55 51 18 94 30 97 26 5 -9 58
-171 81 -250 10 -35 21 -65 25 -67 4 -2 24 0 44 6 37 10 37 11 22 34 -9 14
-16 28 -16 32 0 4 5 1 10 -8 5 -9 19 -15 32 -13 13 1 31 3 41 3 23 1 26 91 2
91 -10 0 -14 -7 -12 -23 2 -12 2 -16 0 -9 -3 8 -13 12 -24 9 -12 -3 -19 0 -19
10 0 8 -4 11 -10 8 -5 -3 -10 -18 -10 -33 -1 -24 -3 -22 -15 13 -17 46 -18 56
-6 37 6 -11 26 -7 97 18 52 18 98 29 111 25 13 -3 23 -1 23 5 0 5 -5 10 -11
10 -7 0 -6 9 4 24 21 31 12 109 -12 101 -9 -2 -23 0 -31 5 -13 9 -13 11 0 19
10 7 17 6 22 -2 5 -8 8 -4 8 11 0 26 -6 28 -28 6 -13 -13 -17 -14 -21 -3 -2 7
1 15 8 17 7 2 16 14 21 26 5 14 26 29 55 40 46 18 47 18 93 -6 40 -21 49 -31
69 -83 24 -62 28 -79 15 -58 -6 10 -27 7 -88 -14 -81 -28 -100 -41 -84 -57 5
-5 40 1 87 17 43 15 83 27 88 27 6 0 19 -27 29 -60 15 -48 23 -59 35 -54 9 4
26 9 39 11 28 7 28 20 -1 96 -50 132 -62 178 -49 195 6 10 18 31 26 48 11 25
25 34 80 52 37 12 72 20 77 17 5 -4 9 -1 9 4 0 13 22 10 32 -4 5 -6 8 -3 8 7
0 12 15 22 48 32 44 13 30 14 -209 14 l-256 1 -12 -25 c-6 -14 -11 -31 -11
-38 0 -21 -21 -34 -75 -47 -28 -7 -58 -20 -67 -28 -10 -8 -18 -11 -18 -8 0 3
-43 -9 -95 -28 -53 -19 -98 -35 -100 -35 -6 0 -61 174 -64 203 -1 7 -91 10
-91 3z m655 -76 c0 -20 -6 -26 -27 -28 -24 -3 -28 0 -28 22 0 25 13 36 40 33
9 -1 15 -13 15 -27z m-259 -164 c-3 -13 3 -49 14 -81 11 -32 20 -61 20 -65 0
-10 -188 -72 -198 -66 -11 7 -56 156 -49 163 8 7 190 72 206 72 9 1 11 -6 7
-23z m48 -102 c-4 -14 -2 -24 5 -24 6 0 8 -7 4 -17 -5 -14 -8 -13 -15 6 -16
45 -17 70 -2 64 9 -3 12 -13 8 -29z"/>
<path d="M3326 675 c4 -8 8 -15 10 -15 2 0 4 7 4 15 0 8 -4 15 -10 15 -5 0 -7
-7 -4 -15z"/>
<path d="M3355 680 c3 -5 10 -10 16 -10 5 0 9 5 9 10 0 6 -7 10 -16 10 -8 0
-12 -4 -9 -10z"/>
<path d="M4274 673 c-14 -23 -7 -44 12 -36 12 4 14 0 9 -19 -5 -18 -2 -27 10
-32 9 -3 13 -10 10 -16 -10 -16 6 -12 27 7 10 9 18 11 18 6 0 -17 -26 -33 -51
-32 -13 1 -57 -10 -98 -25 -41 -14 -80 -26 -88 -26 -7 0 -26 26 -42 59 -26 51
-55 80 -68 67 -2 -2 10 -32 27 -67 16 -34 30 -67 30 -73 0 -6 -48 -27 -107
-46 -77 -25 -109 -40 -111 -53 -5 -25 20 -22 127 18 51 19 99 35 105 35 11 0
67 -105 66 -125 0 -5 -36 -21 -80 -35 -81 -25 -94 -35 -62 -43 9 -3 -4 -2 -30
0 l-47 6 11 -31 c11 -28 13 -29 25 -14 12 15 13 15 7 -3 -4 -15 -1 -13 10 5 8
14 15 20 16 14 0 -6 13 -9 30 -6 25 3 30 0 36 -22 3 -14 10 -26 16 -26 5 0 6
-4 3 -10 -3 -5 -1 -10 4 -10 7 0 9 19 7 50 -4 44 -2 50 15 50 10 0 19 5 19 10
0 6 -5 10 -12 10 -9 0 -9 3 0 12 9 9 15 9 24 0 7 -7 19 -12 28 -12 9 0 21 -13
27 -29 8 -21 17 -29 32 -28 12 1 21 6 21 12 0 6 39 23 86 39 90 31 106 45 83
73 -12 15 -12 16 4 10 12 -5 17 -1 17 13 0 10 -5 22 -12 26 -7 5 -8 3 -3 -6 5
-9 2 -10 -14 -5 -23 7 -27 -5 -11 -35 10 -20 1 -26 -51 -33 -8 -2 -20 -6 -27
-11 -8 -5 -18 -4 -25 3 -16 16 -35 13 -39 -6 -3 -17 -4 -17 -10 -1 -9 23 39
38 53 17 7 -11 9 -11 9 -1 0 7 5 10 10 7 6 -3 10 2 11 12 0 16 1 16 9 -2 l9
-20 1 20 c1 11 4 14 7 8 2 -7 12 -13 21 -13 14 0 14 2 3 9 -8 5 -12 18 -9 29
4 16 0 19 -21 19 -14 0 -20 -2 -13 -4 17 -6 15 -20 -3 -20 -8 0 -15 4 -15 9 0
4 -7 8 -16 8 -14 0 -14 -2 1 -16 9 -9 13 -19 10 -22 -3 -4 -10 0 -14 7 -7 11
-10 11 -15 0 -5 -11 -7 -11 -12 -1 -3 6 -16 12 -29 12 -13 0 -25 -6 -28 -12
-3 -10 -7 -10 -20 1 -27 22 -20 26 33 23 l50 -4 0 46 0 46 -50 0 -50 0 0 -37
c0 -34 -1 -36 -13 -18 -7 11 -18 32 -24 46 -11 26 -11 26 70 54 45 15 93 34
106 42 16 11 21 11 16 2 -6 -9 -4 -11 7 -6 12 4 14 1 11 -14 -7 -26 14 -24 22
2 4 11 9 19 11 16 3 -2 0 -17 -6 -32 -6 -16 -7 -31 -3 -34 4 -3 9 -17 11 -31
4 -46 9 -52 32 -38 21 13 28 48 10 48 -5 0 -10 12 -10 28 0 15 -6 39 -14 54
-13 24 -12 27 6 32 14 3 19 10 15 20 -4 9 -1 16 5 16 6 0 9 2 6 5 -3 3 -16 2
-29 -3 -27 -10 -52 -5 -43 9 3 5 -6 14 -20 20 -16 8 -22 17 -19 27 5 12 1 14
-23 8 -29 -6 -29 -6 -5 7 20 12 21 15 6 20 -9 4 -17 7 -18 7 -1 0 -7 -8 -13
-17z m86 -69 c0 -2 -12 -4 -27 -4 -21 0 -24 3 -14 9 13 8 41 5 41 -5z m-102
-196 c2 -12 -3 -18 -13 -18 -14 0 -15 3 -5 15 10 12 10 15 -4 15 -11 0 -16 -9
-16 -27 0 -20 -3 -24 -9 -14 -5 7 -6 22 -3 33 6 24 45 21 50 -4z m-8 -88 c0
-5 -5 -10 -11 -10 -5 0 -7 5 -4 10 3 6 8 10 11 10 2 0 4 -4 4 -10z m-20 -24
c0 -2 -6 -9 -13 -15 -10 -8 -14 -7 -14 4 0 8 6 15 14 15 7 0 13 -2 13 -4z
m-160 -46 c-8 -5 -22 -10 -30 -10 -13 0 -13 1 0 10 8 5 22 10 30 10 13 0 13
-1 0 -10z"/>
<path d="M4579 673 c0 -10 -2 -31 -4 -48 -3 -19 -1 -25 4 -16 5 7 13 11 19 7
6 -3 14 -1 18 5 4 8 3 9 -4 5 -7 -4 -12 -2 -12 3 0 6 0 14 0 19 0 4 5 7 10 7
6 0 10 3 10 8 0 4 0 12 0 17 0 18 -40 11 -41 -7z"/>
<path d="M4664 680 c-12 -5 -25 -14 -30 -21 -15 -24 -12 -74 7 -111 10 -20 19
-50 18 -65 0 -15 -3 -23 -5 -16 -4 8 -14 8 -39 -3 -19 -8 -43 -14 -53 -14 -26
0 -45 -23 -31 -37 7 -7 3 -9 -16 -5 -20 3 -23 7 -13 14 8 5 2 6 -17 2 -38 -9
-44 -14 -17 -14 24 0 29 -23 12 -50 -7 -12 -10 -8 -10 14 0 38 -12 26 -15 -14
-2 -24 1 -30 12 -25 9 3 22 0 29 -6 10 -8 35 -4 104 20 50 17 96 31 104 31 14
0 66 -88 66 -112 0 -8 -15 -22 -32 -32 -61 -32 -73 -41 -76 -58 -4 -23 14 -23
22 -1 6 15 8 15 16 3 7 -11 10 -12 10 -2 0 7 5 10 10 7 6 -3 10 -2 10 2 0 5
13 14 30 20 25 9 32 9 40 -5 6 -11 10 -12 10 -4 0 9 8 8 28 -5 22 -14 25 -15
15 -2 -7 9 -9 20 -5 24 4 5 1 5 -5 1 -7 -4 -13 -3 -13 3 0 5 7 14 15 19 21 11
8 45 -15 39 -12 -3 -22 4 -30 19 -7 13 -17 21 -22 18 -12 -8 -10 10 4 24 9 9
9 12 0 12 -7 0 -12 -4 -12 -10 0 -5 -5 -10 -10 -10 -6 0 -8 12 -6 26 3 15 -1
42 -9 60 -12 30 -12 34 1 34 7 0 14 5 14 10 0 6 9 10 20 10 11 0 48 11 82 25
34 14 70 25 80 25 12 0 16 4 12 12 -4 6 -3 8 3 5 5 -3 26 0 46 7 39 13 58 26
38 26 -7 0 -9 5 -5 11 5 8 10 6 16 -5 11 -20 32 -22 25 -2 -4 10 2 13 19 12
14 0 22 -6 20 -13 -3 -7 6 -40 20 -74 13 -35 24 -69 24 -76 0 -7 -16 -19 -36
-28 -55 -23 -36 -50 22 -31 21 6 21 6 7 -71 -7 -43 -15 -85 -16 -93 -1 -8 -7
-21 -11 -29 -7 -11 -5 -13 7 -8 9 3 19 2 22 -3 4 -6 3 -10 -2 -11 -4 0 -18 -2
-31 -3 -17 -2 -21 1 -17 13 3 11 0 10 -10 -3 -11 -14 -15 -16 -15 -5 -1 10 -4
9 -11 -4 -15 -25 -4 -33 27 -18 15 6 28 10 30 8 2 -2 0 -28 -6 -57 -14 -72
-13 -80 9 -80 15 0 20 12 28 63 6 34 9 74 7 89 -2 23 0 26 22 23 15 -1 28 4
31 11 3 8 11 14 19 14 8 0 14 9 14 21 0 14 -5 19 -17 17 -10 -2 -19 -9 -19
-16 -1 -6 -2 -20 -3 -29 -1 -15 -3 -16 -10 -3 -6 8 -7 18 -4 24 3 5 1 6 -6 2
-6 -4 -9 -11 -6 -16 5 -8 -31 -21 -39 -13 -3 3 6 15 19 27 18 16 26 38 33 95
8 55 16 77 31 88 26 18 29 55 4 46 -13 -5 -15 -1 -10 24 20 101 20 136 1 151
-18 13 -18 14 3 8 19 -6 21 -4 20 27 -1 23 -6 33 -14 30 -16 -6 -16 -16 -3
-29 6 -6 3 -10 -9 -10 -11 0 -17 4 -15 8 9 14 -24 38 -52 38 -26 0 -26 -1 -11
-18 18 -19 14 -32 -9 -32 -8 0 -16 11 -20 25 -4 16 -13 25 -26 25 -17 0 -19
-4 -14 -26 4 -15 14 -33 22 -41 18 -18 10 -31 -9 -15 -8 7 -17 9 -21 5 -3 -4
-13 -8 -21 -9 -28 -4 -220 -66 -225 -73 -6 -8 -110 -35 -114 -30 -1 2 -16 31
-32 65 l-30 61 43 12 c24 6 41 16 38 21 -3 6 -2 10 4 10 5 0 12 -6 14 -12 3
-7 6 -3 6 9 1 20 -1 20 -29 10 -21 -8 -26 -14 -17 -20 8 -6 6 -7 -6 -3 -10 3
-21 6 -24 6 -3 0 0 7 7 15 14 17 13 17 -16 5z m-4 -20 c0 -5 -5 -10 -11 -10
-5 0 -7 5 -4 10 3 6 8 10 11 10 2 0 4 -4 4 -10z m477 -72 c-3 -7 -5 -2 -5 12
0 14 2 19 5 13 2 -7 2 -19 0 -25z m63 5 c0 -35 -13 -93 -20 -93 -7 0 -30 67
-30 88 0 9 15 17 43 21 4 0 7 -7 7 -16z m-315 -62 c3 -5 2 -12 -3 -15 -5 -3
-9 1 -9 9 0 17 3 19 12 6z m-68 -37 c-3 -3 -12 -4 -19 -1 -8 3 -5 6 6 6 11 1
17 -2 13 -5z m-263 -70 c3 -8 2 -12 -4 -9 -6 3 -10 10 -10 16 0 14 7 11 14 -7z
m86 -4 c-20 -13 -33 -13 -25 0 3 6 14 10 23 10 15 0 15 -2 2 -10z m-115 -41
c0 -8 4 -17 8 -20 14 -10 -19 -18 -34 -8 -8 5 -9 9 -2 9 6 0 9 9 6 21 -4 16
-2 20 8 17 8 -3 14 -11 14 -19z"/>
<path d="M4760 680 c0 -5 5 -10 11 -10 5 0 7 5 4 10 -3 6 -8 10 -11 10 -2 0
-4 -4 -4 -10z"/>
<path d="M1405 649 c-4 -12 -2 -26 5 -33 8 -8 10 -7 5 5 -4 10 0 19 9 22 20 8
33 -13 15 -24 -13 -8 -5 -13 16 -9 5 1 2 -7 -8 -18 -22 -24 -22 -39 0 -21 11
10 14 10 9 2 -4 -8 -2 -13 6 -13 11 0 10 -2 0 -9 -11 -7 -10 -9 3 -14 9 -4 13
-3 10 3 -10 16 7 12 19 -5 15 -20 58 -9 54 14 -3 12 -13 15 -40 13 -35 -3 -36
-3 -42 42 -5 30 -14 50 -26 56 -26 14 -28 13 -35 -11z"/>
<path d="M3453 655 c-10 -11 -10 -14 0 -18 6 -2 11 -15 9 -30 -1 -20 2 -25 13
-21 17 7 17 9 2 50 -10 26 -14 29 -24 19z"/>
<path d="M1753 622 c7 -15 16 -21 26 -16 9 3 22 7 29 8 7 1 17 7 24 14 15 15
-28 8 -48 -9 -10 -8 -12 -7 -10 8 3 13 -2 19 -14 19 -15 0 -16 -4 -7 -24z"/>
<path d="M2436 643 c-8 -8 -12 -9 -43 -12 -17 -2 -17 -2 0 -12 9 -5 17 -18 17
-27 0 -15 -2 -15 -10 -2 -9 13 -10 13 -11 0 0 -10 -3 -8 -9 5 -6 13 -9 15 -9
5 -1 -27 15 -43 38 -35 16 5 20 12 16 26 -4 12 -1 21 8 24 7 3 14 12 14 20 0
17 -1 18 -11 8z"/>
<path d="M4537 622 c2 -11 -1 -23 -9 -27 -7 -5 -10 -5 -6 0 11 12 -11 35 -28
28 -11 -4 -12 -8 -3 -20 10 -11 10 -13 -1 -11 -8 2 -16 -6 -18 -16 -4 -19 -3
-19 13 -2 10 9 24 15 31 12 35 -14 58 20 30 43 -12 10 -13 9 -9 -7z"/>
<path d="M1603 589 c-13 -5 -23 -13 -23 -19 0 -6 5 -8 12 -4 8 5 9 2 5 -9 -3
-10 -2 -17 3 -17 6 0 10 5 10 11 0 5 5 7 12 3 8 -5 9 -2 5 9 -4 11 -1 17 9 17
8 0 12 -4 9 -10 -3 -5 -1 -10 5 -10 17 0 7 33 -10 35 -8 1 -25 -1 -37 -6z"/>
<path d="M736 562 c-2 -4 3 -32 13 -62 14 -42 23 -56 40 -58 20 -3 21 -5 6
-15 -13 -10 -14 -18 -4 -47 15 -45 35 -68 49 -54 15 15 -8 75 -28 72 -8 -2
-17 4 -19 12 -3 11 -2 11 4 3 12 -17 31 -2 28 22 -7 48 -17 66 -31 54 -20 -16
-17 -30 4 -22 14 5 15 3 5 -8 -19 -19 -41 4 -24 25 16 18 4 64 -20 76 -10 6
-20 6 -23 2z"/>
<path d="M1255 560 c-3 -5 -4 -14 -1 -19 3 -5 -6 -8 -20 -8 -30 0 -46 -20 -38
-45 3 -10 1 -18 -5 -18 -6 0 -11 -8 -11 -17 0 -13 12 -4 38 26 l37 43 12 -33
c6 -19 26 -76 44 -126 25 -73 36 -93 50 -93 11 0 19 -7 19 -16 0 -13 -3 -14
-13 -5 -11 8 -18 6 -33 -11 -10 -12 -13 -18 -6 -14 6 4 12 2 12 -3 0 -6 -7
-11 -16 -11 -11 0 -15 6 -11 19 4 16 0 19 -22 15 -39 -7 -91 -27 -91 -35 0 -4
10 -10 23 -12 19 -4 18 -4 -5 -6 -16 0 -28 4 -28 12 0 6 -5 4 -11 -6 -6 -9
-14 -15 -19 -12 -4 3 -6 -4 -3 -16 5 -19 7 -19 15 -5 7 13 13 14 23 6 8 -7 20
-8 27 -4 7 5 15 9 18 10 45 9 102 29 110 40 6 7 18 10 26 7 8 -3 14 0 14 7 0
7 6 10 14 7 7 -3 25 1 40 8 14 8 26 11 26 7 0 -4 4 -1 9 6 4 7 23 16 42 18 19
3 39 12 45 19 6 8 19 14 30 13 26 -2 94 28 94 41 0 6 -8 11 -17 11 -14 0 -15
2 -4 9 18 12 56 2 42 -12 -14 -14 -2 -37 21 -37 12 0 17 -4 12 -12 -4 -7 -3
-8 4 -4 16 9 3 38 -14 32 -12 -4 -11 0 1 24 12 23 13 35 5 50 -14 26 -36 26
-50 0 -6 -12 -23 -25 -37 -31 -25 -9 -25 -10 -7 -23 17 -13 12 -14 -40 -12
-32 2 -61 7 -64 13 -4 5 -14 13 -22 16 -12 4 -11 6 3 6 21 1 20 -3 1 54 -15
44 -17 45 -40 35 -14 -6 -21 -14 -16 -17 5 -3 14 -15 20 -26 6 -11 12 -14 12
-7 0 17 20 15 20 -3 0 -8 -5 -15 -11 -15 -7 0 -9 -12 -4 -36 4 -26 2 -39 -7
-45 -9 -6 -7 -9 9 -9 12 0 25 -5 29 -12 5 -8 -2 -9 -25 -5 -18 4 -30 3 -27 -1
2 -4 -22 -7 -55 -8 -45 0 -59 3 -59 14 0 8 -11 46 -25 84 l-25 69 23 8 c12 5
42 17 66 27 41 16 45 16 56 1 11 -15 14 -16 25 -2 8 10 9 15 2 15 -6 0 -9 7
-5 16 5 14 3 15 -17 4 -12 -7 -20 -7 -16 -2 11 19 -18 19 -66 0 -66 -25 -86
-23 -94 7 -7 30 -29 50 -39 35z m-35 -50 c0 -5 -5 -10 -11 -10 -5 0 -7 5 -4
10 3 6 8 10 11 10 2 0 4 -4 4 -10z m290 -60 c0 -5 -5 -10 -11 -10 -5 0 -7 5
-4 10 3 6 8 10 11 10 2 0 4 -4 4 -10z m220 -40 c0 -5 -9 -14 -19 -19 -16 -9
-18 -8 -14 9 5 20 33 29 33 10z m-280 -145 c0 -8 -4 -15 -10 -15 -5 0 -10 7
-10 15 0 8 5 15 10 15 6 0 10 -7 10 -15z m-153 -39 c-3 -8 -1 -17 6 -20 9 -3
9 -5 0 -5 -15 -1 -26 16 -18 29 9 15 18 12 12 -4z"/>
<path d="M7 540 c-4 -17 0 -20 31 -19 21 1 42 0 47 -1 23 -6 35 1 35 20 0 11
-4 20 -10 20 -5 0 -10 -7 -10 -15 0 -8 -4 -15 -10 -15 -5 0 -10 8 -10 18 0 14
-2 15 -10 2 -6 -10 -10 -11 -10 -2 0 6 -4 12 -10 12 -5 0 -10 -7 -10 -15 0 -8
-4 -15 -10 -15 -5 0 -7 7 -4 15 4 8 2 15 -4 15 -5 0 -12 -9 -15 -20z"/>
<path d="M1560 545 c0 -8 5 -15 10 -15 6 0 10 7 10 15 0 8 -4 15 -10 15 -5 0
-10 -7 -10 -15z"/>
<path d="M2336 521 c-3 -5 1 -14 9 -21 11 -9 14 -8 12 9 -1 22 -12 28 -21 12z"/>
<path d="M2367 523 c-8 -7 14 -53 25 -53 5 0 6 5 3 10 -3 6 -2 10 2 10 5 0 9
8 9 18 0 17 -27 27 -39 15z"/>
<path d="M2597 523 c-4 -3 -7 -19 -7 -35 0 -34 -28 -64 -56 -60 -12 2 -21 -3
-21 -10 0 -7 -4 -21 -8 -30 -5 -13 -2 -18 9 -18 9 0 16 8 16 20 0 11 4 20 10
20 5 0 7 -8 4 -17 -4 -11 -3 -14 3 -7 4 6 21 11 37 10 26 -1 30 -6 43 -51 17
-58 26 -70 47 -62 12 5 12 14 -6 67 -15 42 -26 60 -37 59 -29 -3 -33 1 -16 18
14 14 18 14 26 2 5 -8 9 -9 9 -4 0 19 -31 55 -43 49 -7 -3 -3 2 7 10 17 14 18
16 3 16 -20 0 -23 16 -4 23 6 3 7 6 1 6 -6 1 -14 -2 -17 -6z m33 -66 c0 -2
-13 -16 -30 -30 -34 -30 -52 -19 -18 12 18 18 48 28 48 18z"/>
<path d="M557 506 c-3 -8 8 -55 24 -103 17 -48 32 -97 34 -107 5 -24 25 -46
25 -28 0 7 8 12 18 12 14 0 15 -2 2 -10 -10 -6 -11 -10 -2 -10 6 0 12 -4 12
-9 0 -4 -14 -8 -32 -7 -17 0 -33 -5 -36 -12 -2 -6 2 -12 10 -12 10 0 9 -3 -2
-10 -9 -6 -10 -10 -3 -10 7 0 16 6 20 14 9 15 63 28 63 14 0 -5 9 -4 20 2 22
12 24 18 10 40 -8 13 -11 12 -23 -4 -13 -18 -14 -16 -20 21 -4 23 -13 43 -21
46 -9 4 -12 14 -9 26 3 12 0 28 -7 36 -6 8 -9 19 -5 25 9 14 -8 13 -24 -2 -10
-11 -11 -10 -6 2 7 19 -17 92 -32 97 -6 2 -13 -3 -16 -11z m78 -116 c3 -5 2
-10 -3 -10 -15 0 -8 -35 11 -54 18 -18 15 -37 -6 -35 -8 0 -8 2 1 6 10 4 9 10
-6 27 -26 29 -37 76 -18 76 8 0 18 -4 21 -10z"/>
<path d="M2253 435 c-1 -77 0 -84 16 -76 13 8 17 5 19 -15 1 -17 -3 -24 -16
-23 -10 0 -12 3 -4 6 6 2 12 9 12 15 0 6 -6 6 -15 -2 -8 -7 -13 -16 -10 -20 8
-13 -9 -20 -25 -9 -10 6 -11 9 -2 9 6 0 12 8 12 18 0 16 -9 19 -62 21 -35 1
-67 2 -73 2 -5 0 -21 -2 -35 -5 -14 -4 -19 -4 -12 0 6 3 12 24 12 46 0 31 -3
39 -15 34 -8 -3 -14 -2 -13 2 1 4 -4 18 -12 32 -7 14 -13 26 -12 28 4 6 -10 2
-26 -7 -9 -6 -12 -11 -4 -11 6 0 11 -10 11 -22 -1 -17 -2 -19 -6 -5 -6 21 -33
23 -33 1 0 -8 -4 -13 -10 -9 -5 3 -7 12 -3 20 3 8 1 15 -5 15 -13 0 -10 -30 5
-55 8 -12 16 -16 20 -10 5 6 17 10 28 10 11 0 19 6 18 13 -2 6 3 12 10 12 8 0
12 -16 12 -49 0 -27 -4 -47 -8 -44 -5 3 -33 7 -63 9 -55 4 -55 3 -52 -24 3
-25 6 -27 56 -29 30 -2 62 2 71 7 12 6 22 5 30 -3 9 -9 14 -8 21 3 8 12 10 12
10 1 0 -9 11 -12 40 -9 48 4 41 -4 -22 -25 -47 -15 -48 -15 -48 4 0 15 -6 20
-22 17 -13 -2 -23 -10 -24 -18 -1 -8 -2 -20 -2 -26 -1 -6 -48 -28 -104 -47
-57 -20 -110 -38 -119 -42 -12 -4 -18 1 -22 23 -6 31 -37 53 -37 27 0 -9 -6
-12 -17 -8 -11 4 -14 3 -9 -5 4 -7 14 -12 22 -12 8 0 14 -4 14 -10 0 -5 -4
-10 -10 -10 -14 0 -12 -38 2 -42 9 -3 9 -6 0 -12 -7 -4 -12 -2 -12 3 0 17 -27
13 -109 -15 -75 -26 -108 -43 -62 -31 14 3 31 2 37 -4 9 -7 31 -4 73 11 54 20
62 21 75 7 20 -20 8 -29 -69 -50 -33 -10 -78 -24 -100 -32 l-40 -14 60 0 c33
-1 82 6 108 14 42 13 49 13 54 0 3 -8 16 -15 29 -15 18 0 24 5 24 23 0 16 -3
18 -9 9 -6 -10 -10 -8 -14 10 -10 33 -7 46 4 23 7 -16 8 -12 5 15 -2 19 -7 43
-11 53 -5 13 -3 16 7 12 16 -6 216 59 232 75 6 6 19 10 31 10 11 0 57 13 102
29 65 23 84 27 92 17 6 -7 8 -16 4 -19 -3 -4 -1 -7 5 -7 7 0 12 -5 12 -11 0
-5 -4 -7 -10 -4 -5 3 -10 -1 -10 -9 0 -10 9 -16 23 -16 20 -1 20 -2 4 -11 -9
-5 -22 -7 -27 -4 -5 3 -7 0 -4 -8 3 -8 15 -18 27 -22 l22 -8 -22 -4 c-15 -3
-23 -12 -23 -24 0 -14 4 -18 13 -13 8 5 8 2 -2 -9 -16 -20 -12 -21 26 -6 l28
11 -30 14 c-28 12 -28 13 -6 14 19 0 22 4 18 22 -3 12 -2 30 4 40 8 14 6 18
-7 18 -13 0 -14 3 -4 15 6 8 9 19 6 24 -4 5 -2 12 4 16 7 4 7 12 0 24 -11 22
-4 32 18 24 10 -4 13 -2 8 5 -3 6 -2 13 4 17 6 3 10 -4 10 -16 0 -22 0 -22 15
-3 10 13 14 14 15 5 0 -10 3 -11 13 -2 8 6 17 8 20 4 13 -12 7 13 -5 27 -9 9
-5 9 12 -2 24 -15 26 -14 27 2 2 27 -48 24 -55 -3 -5 -20 -6 -20 -13 -1 -7 17
-8 17 -8 1 -1 -12 -5 -15 -13 -10 -16 10 -32 11 -38 2 -3 -4 -5 33 -5 82 0 49
-2 89 -5 89 -3 0 -11 -5 -18 -12 -9 -9 -12 -9 -12 0 0 7 -3 12 -7 12 -5 0 -9
-38 -10 -85z m37 -146 c0 -5 -7 -9 -15 -9 -15 0 -20 12 -9 23 8 8 24 -1 24
-14z m-520 -140 c0 -6 -4 -7 -10 -4 -5 3 -10 11 -10 16 0 6 5 7 10 4 6 -3 10
-11 10 -16z m0 -29 c0 -5 -5 -10 -11 -10 -5 0 -7 5 -4 10 3 6 8 10 11 10 2 0
4 -4 4 -10z"/>
<path d="M2420 478 c0 -24 -4 -38 -8 -33 -12 17 -35 17 -29 0 10 -24 -3 -18
-13 8 -10 22 -10 22 -7 -3 2 -24 16 -28 70 -21 11 2 9 79 -3 86 -6 4 -10 -11
-10 -37z"/>
<path d="M2 470 c0 -14 2 -19 5 -12 2 6 2 18 0 25 -3 6 -5 1 -5 -13z"/>
<path d="M30 471 c0 -11 5 -23 10 -26 6 -4 10 5 10 19 0 14 -4 26 -10 26 -5 0
-10 -9 -10 -19z"/>
<path d="M60 470 c0 -32 82 -33 87 0 2 11 -9 15 -42 17 -37 1 -45 -1 -45 -17z
m60 0 c0 -5 -4 -10 -10 -10 -5 0 -10 5 -10 10 0 6 5 10 10 10 6 0 10 -4 10
-10z"/>
<path d="M2330 462 c0 -17 4 -34 10 -37 6 -4 7 6 3 27 -8 44 -13 48 -13 10z"/>
<path d="M2716 472 c-4 -12 -12 -20 -17 -16 -5 3 -7 10 -4 15 10 15 -22 10
-35 -6 -9 -10 -9 -15 -1 -15 6 0 11 -8 12 -17 0 -11 3 -13 6 -5 2 6 13 12 24
12 21 0 34 21 27 42 -3 8 -8 4 -12 -10z"/>
<path d="M1021 444 c21 -26 6 -56 -36 -71 -22 -7 -44 -19 -50 -25 -7 -8 -6 -9
3 -3 11 6 12 3 3 -13 -16 -29 -14 -37 5 -21 9 7 33 19 53 26 31 11 38 10 47
-2 10 -14 12 -14 18 0 3 8 10 15 17 15 6 0 9 -7 5 -15 -3 -9 0 -15 8 -15 17 0
30 30 13 30 -7 0 1 8 16 18 17 10 27 25 26 37 -2 36 1 46 13 39 7 -4 8 -3 4 5
-6 9 -14 6 -30 -11 -18 -19 -20 -25 -9 -34 16 -13 7 -25 -14 -17 -8 3 -19 0
-24 -8 -6 -10 -11 -5 -22 19 -7 18 -17 29 -22 25 -5 -5 -4 -1 3 8 11 14 9 17
-13 21 -20 4 -23 3 -14 -8z"/>
<path d="M1865 450 c-3 -5 -12 -7 -20 -3 -8 3 -15 0 -15 -6 0 -6 -6 -11 -14
-11 -7 0 -25 -6 -39 -13 -20 -11 -23 -17 -15 -25 9 -9 9 -12 0 -12 -7 0 -12
-5 -12 -11 0 -12 1 -12 105 25 38 13 73 22 77 19 19 -11 6 18 -14 31 -26 18
-44 20 -53 6z m-48 -46 c-3 -3 -12 -4 -19 -1 -8 3 -5 6 6 6 11 1 17 -2 13 -5z"/>
<path d="M2456 394 c-10 -26 -7 -34 14 -34 23 0 26 15 6 35 -12 12 -15 12 -20
-1z"/>
<path d="M5060 360 c0 -11 7 -20 15 -20 8 0 15 5 15 10 0 6 -5 10 -11 10 -5 0
-7 5 -4 10 3 6 1 10 -4 10 -6 0 -11 -9 -11 -20z"/>
<path d="M5030 355 c-7 -8 -16 -12 -21 -10 -14 9 -49 -19 -50 -40 -1 -17 -2
-17 -6 -2 -2 9 -9 17 -15 17 -5 0 -7 -7 -4 -16 5 -13 1 -15 -20 -10 -18 5 -25
3 -22 -5 6 -18 49 -21 67 -5 9 7 24 12 34 11 11 -2 21 5 26 18 5 14 10 17 15
9 12 -20 27 -3 16 17 -5 10 -6 21 -3 25 3 3 4 6 1 6 -3 0 -11 -7 -18 -15z
m-20 -31 c0 -8 -4 -12 -10 -9 -5 3 -10 1 -10 -5 0 -6 -4 -8 -10 -5 -6 4 -5 11
3 20 16 19 27 19 27 -1z"/>
<path d="M903 343 c-20 -7 -15 -23 7 -23 11 0 20 4 20 9 0 13 -12 19 -27 14z"/>
<path d="M869 317 c-1 -7 -1 -18 0 -24 2 -11 -18 -18 -41 -14 -4 0 -5 -6 -1
-14 3 -11 12 -13 27 -9 17 6 19 4 9 -7 -7 -9 -8 -20 -3 -28 4 -8 6 -21 3 -30
-4 -11 0 -10 11 4 10 11 14 14 10 6 -5 -9 -3 -12 4 -7 7 4 12 2 12 -3 0 -6 -3
-11 -8 -11 -4 0 -13 -9 -20 -20 -7 -11 -9 -20 -5 -19 20 3 34 -2 28 -11 -3 -5
0 -10 8 -10 12 0 13 -7 7 -35 -4 -19 -4 -33 0 -30 5 3 11 -9 15 -26 5 -24 9
-28 16 -18 8 12 11 12 19 -1 7 -11 10 -12 10 -2 0 8 -9 16 -20 19 -11 3 -20
10 -20 15 0 6 7 8 15 4 8 -3 15 -1 15 4 0 6 -5 10 -11 10 -5 0 -8 4 -4 9 3 5
1 12 -5 16 -5 3 -10 17 -10 31 0 13 -5 24 -11 24 -5 0 -8 4 -5 8 9 15 -17 82
-32 82 -11 0 -12 3 -3 14 8 10 9 15 1 18 -6 2 -8 11 -5 20 4 9 13 14 20 12 24
-10 24 11 -1 23 -18 8 -24 8 -25 0z"/>
<path d="M4473 315 c0 -8 5 -11 11 -8 6 4 5 -1 -3 -11 -11 -13 -16 -14 -22 -4
-4 7 -10 10 -13 7 -8 -8 54 -129 69 -135 8 -3 11 -12 8 -20 -3 -8 0 -14 6 -14
6 0 11 5 11 11 0 5 5 7 10 4 15 -9 12 -25 -5 -25 -19 0 -20 -26 0 -34 9 -3 12
-12 8 -23 -6 -15 -4 -16 9 -6 8 7 19 9 24 5 5 -4 6 -3 2 2 -4 5 -3 15 3 23 9
10 5 13 -22 13 -28 1 -31 2 -16 11 9 5 23 7 30 3 9 -5 9 -4 0 7 -19 20 -16 24
18 25 36 1 58 19 42 35 -13 13 -63 1 -70 -17 -9 -24 -24 -15 -19 10 5 30 -18
55 -28 31 -3 -9 1 -18 9 -21 8 -4 12 -10 9 -16 -7 -11 -54 30 -54 46 0 6 5 4
10 -4 9 -13 11 -13 20 0 13 19 13 40 0 40 -5 0 -10 7 -10 15 0 18 -21 65 -30
65 -4 0 -7 -7 -7 -15z m17 -61 c0 -8 -5 -12 -10 -9 -6 4 -8 11 -5 16 9 14 15
11 15 -7z"/>
<path d="M800 295 c-1 -24 -2 -27 -10 -13 -15 25 -50 11 -50 -21 0 -14 4 -21
8 -15 4 6 15 10 25 8 10 -1 29 9 42 22 26 26 33 40 14 28 -6 -3 -15 0 -20 7
-6 10 -9 5 -9 -16z m-16 -21 c3 -8 2 -12 -4 -9 -6 3 -10 10 -10 16 0 14 7 11
14 -7z"/>
<path d="M1052 313 c-13 -5 -92 -104 -110 -139 -8 -15 -8 -32 -1 -58 11 -40
13 -41 58 -25 25 9 30 14 19 21 -9 7 -6 8 12 4 35 -8 70 3 70 23 0 14 -2 14
-11 1 -9 -12 -10 -12 -5 3 3 10 6 22 6 25 0 4 4 1 9 -7 5 -8 7 5 3 34 -5 46
-4 47 19 40 23 -7 23 -7 7 12 -10 11 -18 25 -18 31 0 12 -28 42 -38 41 -4 0
-13 -3 -20 -6z m27 -74 c17 -48 14 -69 -9 -69 -12 0 -20 -7 -21 -17 0 -10 -3
-13 -5 -7 -3 6 -15 9 -29 7 -17 -4 -22 -10 -17 -22 5 -14 3 -14 -11 -2 -14 11
-14 17 -4 35 21 37 72 105 79 106 3 0 11 -14 17 -31z m-102 -135 c-3 -3 -12
-4 -19 -1 -8 3 -5 6 6 6 11 1 17 -2 13 -5z"/>
<path d="M1728 283 c10 -4 10 -8 1 -19 -9 -11 -8 -14 4 -14 8 0 18 7 21 16 9
23 8 24 -16 23 -13 0 -17 -3 -10 -6z"/>
<path d="M3583 265 c12 -8 14 -15 7 -20 -5 -3 -7 -11 -4 -17 4 -6 -1 -8 -16
-3 -20 6 -22 5 -15 -11 4 -11 12 -32 17 -49 6 -16 22 -40 37 -52 14 -13 21
-23 16 -23 -6 0 -16 5 -23 12 -14 14 -16 0 -3 -21 5 -8 14 -10 22 -5 11 6 11
5 0 -9 -21 -26 -1 -64 34 -65 15 0 23 3 18 7 -11 8 -35 62 -30 68 3 2 42 17
88 32 45 15 76 31 68 34 -8 2 3 4 23 3 21 0 38 -4 38 -8 0 -5 -4 -8 -9 -8 -5
0 0 -29 12 -65 l21 -65 61 1 c33 1 53 3 44 6 -24 6 -63 114 -54 152 3 17 2 38
-4 48 -6 10 -11 13 -11 7 0 -7 -11 -9 -26 -6 -26 5 -27 4 -20 -34 5 -28 4 -35
-3 -24 -6 8 -11 25 -11 38 0 14 -6 22 -17 22 -15 0 -16 -2 -3 -10 11 -7 6 -10
-20 -10 -27 0 -31 -3 -20 -10 11 -7 5 -8 -19 -3 -24 4 -32 3 -27 -5 4 -8 2
-10 -8 -6 -22 8 -42 -6 -25 -18 10 -6 7 -7 -9 -3 -13 4 -29 1 -37 -5 -8 -7
-15 -9 -15 -5 0 4 -7 2 -15 -5 -9 -7 -17 -11 -19 -9 -10 12 -24 98 -19 120 4
21 0 27 -19 32 -21 6 -22 5 -5 -8z m322 -83 c0 -18 -20 -15 -23 4 -3 10 1 15
10 12 7 -3 13 -10 13 -16z m22 -14 c-3 -8 -6 -5 -6 6 -1 11 2 17 5 13 3 -3 4
-12 1 -19z m-80 -4 c-3 -3 -12 -4 -19 -1 -8 3 -5 6 6 6 11 1 17 -2 13 -5z
m-110 -40 c-3 -3 -12 -4 -19 -1 -8 3 -5 6 6 6 11 1 17 -2 13 -5z m-52 -14
c-27 -12 -43 -12 -25 0 8 5 22 9 30 9 10 0 8 -3 -5 -9z"/>
<path d="M4870 260 c0 -5 5 -10 11 -10 5 0 7 5 4 10 -3 6 -8 10 -11 10 -2 0
-4 -4 -4 -10z"/>
<path d="M365 250 c3 -6 -2 -9 -12 -7 -10 1 -19 -1 -20 -5 -6 -18 -2 -38 8
-38 5 0 7 6 3 13 -5 7 0 6 11 -3 16 -14 16 -15 1 -18 -9 -2 -14 -7 -11 -12 3
-4 14 -6 25 -3 14 4 20 0 20 -10 0 -20 -17 -31 -23 -15 -2 7 -8 9 -13 5 -5 -5
-1 -14 8 -21 10 -7 15 -16 11 -19 -3 -4 1 -7 10 -7 9 0 17 -4 17 -10 0 -5 -5
-10 -11 -10 -8 0 -8 -4 1 -14 6 -8 18 -12 27 -9 12 5 14 1 8 -17 -6 -19 -4
-22 10 -16 15 5 16 4 5 -9 -7 -8 -29 -16 -49 -17 -36 -1 -36 -1 -4 -5 39 -5
103 24 82 38 -8 5 -10 9 -5 9 5 0 3 6 -3 13 -6 8 -7 17 -3 22 4 4 -6 5 -22 1
-26 -6 -28 -5 -17 8 7 9 17 13 22 10 5 -3 6 2 3 10 -3 9 -16 16 -29 16 -18 0
-22 4 -18 20 3 11 9 17 14 14 5 -3 9 0 9 5 0 6 -7 11 -16 11 -8 0 -12 5 -9 10
3 6 2 10 -3 10 -5 0 -7 11 -5 24 3 15 -1 25 -12 29 -9 4 -14 3 -10 -3z m15
-30 c0 -5 -2 -10 -4 -10 -3 0 -8 5 -11 10 -3 6 -1 10 4 10 6 0 11 -4 11 -10z"/>
<path d="M3005 240 c-3 -5 -1 -10 4 -10 6 0 11 5 11 10 0 6 -2 10 -4 10 -3 0
-8 -4 -11 -10z"/>
<path d="M581 225 c-1 -17 -3 -18 -11 -5 -9 13 -10 13 -10 0 0 -13 -1 -13 -10
0 -8 12 -10 10 -10 -10 0 -21 -2 -22 -11 -10 -9 12 -10 12 -5 -3 3 -10 6 -21
6 -24 0 -3 7 0 15 7 8 7 15 9 15 6 0 -4 7 0 16 8 8 9 13 24 11 34 -4 14 -5 14
-6 -3z"/>
<path d="M661 211 c-10 -7 -10 -17 4 -52 10 -28 14 -34 12 -16 -2 15 0 27 4
27 9 0 13 -22 10 -49 -2 -11 0 -11 12 0 11 10 12 16 3 21 -8 6 -8 8 2 8 20 0
14 18 -10 26 -13 5 -27 7 -31 6 -5 -1 -6 2 -3 7 3 5 16 7 29 4 12 -3 20 -4 17
-2 -25 22 -38 27 -49 20z"/>
<path d="M1381 211 c-10 -6 -7 -25 13 -85 31 -91 31 -86 7 -86 -11 0 -27 -7
-36 -16 -15 -15 -17 -15 -21 4 -4 12 -14 20 -27 20 -12 0 -34 4 -49 7 -26 7
-28 5 -28 -24 l0 -31 85 1 c62 1 85 5 85 14 0 13 28 30 43 26 4 0 17 3 27 9
14 7 20 7 20 0 0 -5 -7 -10 -15 -10 -8 0 -15 -4 -15 -10 0 -14 26 -12 79 4 51
15 65 34 24 32 -15 -1 -33 2 -40 7 -8 6 -10 2 -6 -12 3 -12 1 -21 -6 -21 -10
0 -15 14 -12 33 1 4 -8 3 -20 -3 -27 -15 -32 -9 -59 72 -23 73 -29 81 -49 69z"/>
<path d="M2970 217 c0 -2 7 -24 15 -48 9 -23 12 -45 8 -49 -5 -4 -49 -18 -99
-33 -50 -14 -98 -29 -106 -32 -12 -5 -17 0 -20 16 -5 33 -28 36 -28 4 0 -17 4
-24 12 -19 7 4 8 3 4 -5 -4 -6 -12 -8 -18 -5 -8 5 -9 1 -5 -10 4 -10 7 -22 7
-27 0 -5 11 -9 25 -9 14 0 25 4 25 8 0 5 25 16 56 24 l55 16 9 -24 c6 -14 18
-24 30 -24 17 0 18 3 9 27 -5 14 -6 29 -2 33 4 4 38 16 74 27 l66 20 17 -54
c13 -40 22 -53 37 -53 23 0 23 -4 3 53 -9 26 -14 54 -11 61 3 8 31 20 61 27
43 9 56 16 56 31 0 24 -16 23 -111 -8 -44 -14 -86 -23 -94 -20 -8 3 -18 20
-23 38 -6 23 -15 34 -30 36 -12 2 -22 1 -22 -1z"/>
<path d="M500 184 c0 -14 4 -23 9 -20 5 3 7 15 4 26 -7 28 -13 25 -13 -6z"/>
<path d="M2035 201 c-3 -5 -1 -12 5 -16 6 -4 8 -11 4 -16 -3 -5 -10 -6 -16 -3
-7 5 -8 2 -4 -5 5 -7 14 -10 22 -7 22 8 16 -10 -8 -28 -13 -8 -16 -13 -7 -10
12 4 18 -2 21 -24 4 -29 2 -30 -81 -58 -101 -34 -90 -38 84 -32 135 5 178 24
183 81 3 39 -15 41 -93 13 -38 -14 -71 -23 -73 -21 -2 2 -4 33 -4 69 0 48 -4
66 -14 66 -7 0 -15 -4 -19 -9z"/>
<path d="M460 191 c-8 -6 -17 -8 -21 -5 -4 2 -9 -7 -11 -21 -3 -14 -4 -25 -3
-25 1 0 16 5 33 11 21 7 30 17 29 30 -1 21 -6 23 -27 10z"/>
<path d="M1114 164 c0 -24 4 -30 15 -26 9 3 12 1 7 -6 -3 -6 -2 -13 4 -17 5
-3 10 0 10 7 0 9 3 9 10 -2 6 -9 10 -10 10 -3 0 6 -4 14 -9 17 -4 3 -11 18
-14 34 -8 40 -33 37 -33 -4z"/>
<path d="M2695 190 c-18 -7 -19 -8 -3 -15 10 -4 16 -11 13 -15 -3 -5 -1 -19 4
-32 6 -12 10 -17 10 -11 1 7 4 12 9 10 9 -3 12 7 11 41 l-1 27 -8 -25 c-7 -22
-8 -22 -10 -5 -1 11 -2 23 -1 28 1 8 2 8 -24 -3z"/>
<path d="M4222 192 c-6 -2 -12 -8 -12 -14 0 -6 6 -8 13 -5 9 3 13 -2 12 -16
-3 -32 5 -40 23 -25 15 12 15 11 4 -4 -10 -12 -11 -22 -3 -37 18 -32 13 -37
-44 -48 l-54 -9 -12 30 c-7 17 -19 37 -28 44 -14 11 -14 14 -1 22 8 5 11 10 5
10 -5 0 -16 -4 -24 -9 -12 -8 -12 -12 1 -25 9 -9 14 -24 11 -36 -4 -14 3 -29
23 -47 27 -25 31 -25 92 -16 35 5 65 6 68 1 10 -16 44 -8 44 10 0 14 22 27 85
52 47 18 87 36 90 39 2 4 0 13 -5 21 -7 11 -25 6 -97 -23 -48 -21 -91 -37 -95
-37 -4 0 -14 16 -23 36 -8 20 -24 38 -35 41 -11 3 -17 9 -14 14 3 5 9 7 14 4
5 -3 12 0 16 6 4 7 3 9 -4 5 -6 -3 -16 0 -24 7 -7 8 -19 12 -26 9z"/>
<path d="M4832 154 c-1 -13 0 -24 2 -24 7 0 14 40 7 44 -4 3 -8 -6 -9 -20z"/>
<path d="M4856 161 c-4 -6 -2 -19 4 -30 5 -11 10 -32 10 -48 0 -15 4 -23 8
-18 8 13 22 13 41 1 9 -6 17 -3 23 8 5 9 14 16 21 16 7 0 6 -4 -3 -10 -13 -8
-12 -10 3 -10 9 0 17 7 17 15 0 8 -7 15 -15 15 -8 0 -15 5 -15 11 0 5 -10 3
-22 -5 -27 -19 -39 -20 -33 -3 7 17 -31 72 -39 58z"/>
<path d="M1246 153 c-10 -10 -7 -63 3 -63 5 0 11 6 14 13 3 9 7 9 18 1 8 -6
29 -12 47 -12 29 -1 32 2 26 21 -3 12 -10 29 -15 37 -7 13 -8 13 -9 0 0 -14
-50 -23 -50 -9 0 10 -27 19 -34 12z"/>
<path d="M5045 150 c-4 -6 -11 -8 -16 -4 -6 3 -13 -3 -16 -15 -4 -17 -9 -19
-24 -10 -13 7 -19 6 -19 -1 0 -6 7 -13 15 -16 8 -4 12 -11 8 -18 -4 -7 -1 -7
9 1 8 7 18 10 21 6 4 -3 7 2 7 12 0 10 7 27 17 37 9 10 13 18 10 18 -3 0 -9
-5 -12 -10z"/>
<path d="M706 101 c-9 -9 -16 -22 -16 -27 0 -5 5 -2 10 6 8 12 10 11 10 -7 0
-16 4 -21 15 -17 16 7 21 49 6 58 -4 3 -16 -3 -25 -13z"/>
<path d="M3550 105 c-24 -13 -24 -14 -4 -15 12 0 27 7 34 15 16 19 3 19 -30 0z"/>
<path d="M865 79 c22 -23 10 -26 -13 -2 -15 15 -17 14 -23 -8 -7 -30 -8 -30
27 -20 34 9 43 46 11 48 -18 2 -18 1 -2 -18z"/>
<path d="M1130 93 c0 -5 7 -26 14 -48 10 -27 21 -41 35 -43 25 -4 25 -7 5 51
-11 34 -21 47 -35 47 -10 0 -19 -3 -19 -7z"/>
<path d="M805 81 c6 -11 4 -13 -8 -8 -12 4 -14 2 -10 -10 4 -11 2 -14 -5 -9
-8 5 -10 1 -5 -10 4 -12 3 -15 -5 -10 -7 4 -12 2 -12 -3 0 -6 -4 -11 -10 -11
-5 0 -7 7 -4 15 4 9 0 15 -10 15 -21 0 -21 -26 0 -34 8 -3 24 -2 33 4 10 5 20
7 23 5 3 -3 11 6 18 20 11 21 11 27 0 38 -10 10 -11 9 -5 -2z"/>
<path d="M3510 75 c0 -13 -4 -14 -20 -5 -17 9 -22 7 -30 -12 -5 -13 -9 -17 -9
-10 -2 23 -41 13 -51 -13 -5 -14 -14 -25 -20 -25 -14 0 -13 13 3 29 10 11 9
13 -3 9 -21 -6 -26 -48 -6 -48 8 0 18 5 21 10 5 8 11 7 21 0 20 -18 36 -8 50
31 7 20 13 26 13 15 1 -12 6 -16 17 -12 9 3 12 2 9 -5 -4 -6 -13 -8 -21 -5 -8
3 -14 -1 -14 -9 0 -21 28 -18 42 4 6 11 18 17 26 13 11 -4 11 1 -3 21 -20 31
-25 33 -25 12z m-64 -36 c3 -6 1 -16 -5 -22 -9 -9 -14 -8 -21 3 -9 15 -4 30
10 30 5 0 12 -5 16 -11z"/>
<path d="M3570 81 c0 -5 7 -11 14 -14 10 -4 13 -1 9 9 -6 15 -23 19 -23 5z"/>
<path d="M3540 71 c0 -5 7 -12 16 -15 24 -9 27 -7 10 9 -17 17 -26 19 -26 6z"/>
<path d="M4811 56 c-39 -14 -51 -33 -26 -42 21 -9 88 22 83 38 -6 17 -19 18
-57 4z"/>
<path d="M0 42 c0 -30 44 -42 148 -41 95 2 96 2 37 10 -33 4 -87 17 -119 28
-71 25 -66 25 -66 3z"/>
<path d="M680 50 c-11 -7 -11 -10 -2 -10 7 0 10 -5 7 -10 -5 -8 -11 -8 -20 0
-8 7 -21 7 -36 1 -13 -5 -40 -14 -59 -19 -30 -9 -23 -10 52 -11 l88 -1 -10 24
c-5 13 -6 27 -3 30 9 9 0 7 -17 -4z m-33 -36 c-3 -3 -12 -4 -19 -1 -8 3 -5 6
6 6 11 1 17 -2 13 -5z"/>
<path d="M4885 50 c-4 -6 -4 -14 -1 -17 3 -4 6 -1 6 5 0 7 5 12 11 12 7 0 9
-9 5 -23 -4 -18 -1 -23 14 -23 11 0 20 4 20 8 0 4 -4 8 -9 8 -5 0 -8 8 -7 17
1 20 -29 30 -39 13z"/>
<path d="M4576 34 c-9 -9 -13 -21 -9 -27 5 -8 9 -6 11 5 4 23 28 23 41 1 10
-17 10 -17 11 -1 0 27 -35 41 -54 22z"/>
<path d="M1443 28 c4 -12 2 -15 -9 -11 -7 3 -14 0 -14 -6 0 -14 27 -14 36 0 3
6 1 16 -6 22 -10 9 -12 8 -7 -5z"/>
<path d="M2706 15 c4 -8 11 -15 16 -15 6 0 5 6 -2 15 -7 8 -14 15 -16 15 -2 0
-1 -7 2 -15z"/>
<path d="M3303 23 c-24 -9 -13 -22 20 -21 17 1 26 3 19 5 -6 3 -10 9 -6 14 5
10 -12 11 -33 2z"/>
<path d="M4730 15 l-25 -15 31 2 c22 1 30 6 27 15 -3 7 -6 13 -7 13 0 -1 -12
-7 -26 -15z"/>
<path d="M5220 14 l-25 -14 28 0 c17 0 27 5 27 15 0 8 -1 15 -2 14 -2 -1 -14
-7 -28 -15z"/>
<path d="M470 10 c-13 -8 -12 -10 3 -10 9 0 17 5 17 10 0 12 -1 12 -20 0z"/>
<path d="M4085 10 c-2 -3 7 -7 20 -8 13 -1 26 2 29 6 3 4 -7 8 -20 8 -14 0
-27 -3 -29 -6z"/>
<path d="M4048 3 c7 -3 16 -2 19 1 4 3 -2 6 -13 5 -11 0 -14 -3 -6 -6z"/>
</g>
</svg>
